<svg xmlns="http://www.w3.org/2000/svg" width="19.301" height="27.169" viewBox="0 0 19.301 27.169"><g transform="translate(0)"><path d="M19.3,21.671H0L1.809,41.293l7.84,2.224,7.84-2.224Z" transform="translate(0 -16.347)" fill="#e6a329"/><path d="M39.277,28.178V46.762l6.352-1.8,1.545-16.784Z" transform="translate(-29.628 -21.255)" fill="#f1bf22"/><path d="M27.77,37.976H18l-.68,7.346.014-.046h8.3l-.27,3.108-2.647.762-2.686-.774-.161-1.881H17.431l.348,3.759,4.938,1.4,4.94-1.4.68-7.378H19.531l.113-2.458h6.11l.091,1.408H28.3Z" transform="translate(-13.067 -28.646)" fill="#fff"/><path d="M22.719,37.976H18l-.68,7.346.014-.046h5.382v-2.4H19.875l.113-2.458h2.731Zm-2.844,8.516H17.431l.348,3.757,4.938,1.4v-2.5l-2.686-.776Z" transform="translate(-13.067 -28.646)" fill="#ebebeb"/><path d="M26.362,2.43H24.644V3.664h2.948V0H26.364ZM31.835.02h-3V1.3c.4.4.609.592,1.2,1.172h-1.2V3.643h3V2.476L30.639,1.3h1.2Z" transform="translate(-18.59)" fill="#231f20"/></g></svg>