<?xml version="1.0" encoding="utf-8"?>
<svg xmlns="http://www.w3.org/2000/svg" height="32" width="32" viewBox="0 0 32 32">
  <g>
    <rect height="32" width="32" fill="#1468C0" />
    <path id="path1" transform="rotate(0,16,16) translate(5,5.8982190489769) scale(0.6875,0.6875)  " fill="#F9F9F9" d="M0.80596924,9.4250411L7.0410156,9.4250411 7.0410156,29.387 0.80596924,29.387z M24.080994,9.2330245C28.508972,9.2330245,32,12.106985,32,18.288011L32,29.387 24.924011,29.387 24.924011,19.056014C24.924011,16.35399 23.817017,14.507983 21.381958,14.507983 19.52301,14.507983 18.494019,15.752001 18.006958,16.957017 17.825989,17.382005 17.856018,17.986009 17.856018,18.582992L17.856018,29.387 10.85199,29.387C10.85199,29.387,10.942017,11.088003,10.85199,9.4250411L17.856018,9.4250411 17.856018,12.559987C18.270996,11.18804,20.507996,9.2330245,24.080994,9.2330245z M3.8120117,0C6.1090088,5.0898961E-08 7.5249634,1.4910266 7.5700073,3.4640474 7.5700073,5.3980059 6.1090088,6.9290103 3.7630005,6.9290103L3.7210083,6.9290103C1.4609985,6.9290103 0,5.3980059 0,3.4670381 0,1.4949939 1.5020142,5.0898961E-08 3.8120117,0z" />
  </g>
</svg>

